<svg xmlns="http://www.w3.org/2000/svg" version="1.1" xmlns:xlink="http://www.w3.org/1999/xlink" xmlns:svgjs="http://svgjs.dev/svgjs" width="595.3" height="488.9"><svg id="SvgjsSvg1001" xmlns="http://www.w3.org/2000/svg" version="1.1" viewBox="0 0 595.3 488.9">
  <!-- Generator: Adobe Illustrator 29.0.1, SVG Export Plug-In . SVG Version: 2.1.0 Build 192)  -->
  <defs>
    <style>
      .st0 {
        font-family: MyriadPro-Regular, 'Myriad Pro';
      }

      .st1 {
        font-family: SegoeUI-Semilight, 'SegoeUI Semilight';
        font-weight: 300;
      }

      .st2, .st3 {
        fill: #2376b5;
      }

      .st3 {
        fill-rule: evenodd;
      }

      .st4 {
        display: none;
        fill: #2577b6;
        font-size: 25.8px;
      }
    </style>
  </defs>
  <g>
    <polygon class="st3" points="212.5 99.2 297.6 14.1 382.8 99.2 297.6 184.3 212.5 99.2 212.5 99.2"></polygon>
    <g>
      <path class="st2" d="M68.7,473.7v-90.6h36.2l43.3,63.5h1.5l42.8-63.5h36.6v90.6h-27.1v-63.7h-.8l-42.8,63.7h-20.3l-42.4-63.7h-1v63.7h-26.1Z"></path>
      <path class="st2" d="M268.2,473.7v-90.6h72.4c9.5,0,17.3.7,23.3,2,6,1.3,10.6,3.2,13.7,5.7,3.2,2.5,5.4,5.4,6.6,8.9,1.2,3.5,1.8,7.4,1.8,11.7s-.6,7.7-1.6,11.1c-1.1,3.5-3.2,6.5-6.3,9.2-3.1,2.6-7.6,4.7-13.5,6.3l23.8,35.8h-29l-24.8-38.6,12.2,3c-2.1,1.2-4.1,1.9-6.2,2.1-2.1.2-4.1.3-6,.3h-38.5v33.2h-27.9ZM296,425.9h33.1c7,0,12.4-.2,16.3-.7,3.9-.4,6.8-1.2,8.7-2.3,1.9-1.1,3.1-2.6,3.6-4.5.5-1.9.8-4.2.8-7s-.2-4.9-.7-6.7c-.5-1.7-1.6-3.1-3.6-4.1-1.9-1.1-4.8-1.8-8.6-2.2-3.8-.4-9.1-.6-15.8-.6h-33.9v28Z"></path>
      <path class="st2" d="M475.8,474.8c-5.8,0-12.1,0-19-.3-6.8-.2-13.5-.4-20.1-.7-6.6-.3-12.5-.7-17.8-1.1v-14.5c5.5.4,11.3.7,17.3.9,6,.3,11.7.5,17.2.6,5.5.1,10.2.2,14,.2,7.6,0,13.6-.1,17.9-.4,4.3-.3,7.6-.8,10-1.7,1.8-.6,3.1-1.4,3.8-2.4.7-1,1.1-2.1,1.3-3.4.1-1.3.2-2.7.2-4.2s-.1-3.7-.4-4.9-.8-2.3-1.7-3c-.9-.7-2.3-1.3-4.3-1.6-1.9-.4-4.5-.6-7.7-.8l-36.4-2.5c-7.4-.5-13.4-1.3-18.1-2.4-4.7-1.1-8.3-2.6-10.8-4.6-2.5-2-4.3-4.6-5.3-7.8-1-3.2-1.5-7-1.5-11.6s1.4-11,4.3-14.6c2.8-3.6,6.8-6.2,11.9-7.9,5.1-1.7,11.1-2.8,17.9-3.3,6.8-.5,14.3-.7,22.3-.7s12,.1,18.2.3c6.2.2,12.1.5,17.8.9,5.7.4,10.4.9,14.3,1.4v14.1c-4-.4-8.6-.8-13.9-1.1-5.3-.3-10.7-.5-16.3-.6-5.6-.1-10.9-.2-15.8-.2s-12.4.1-16.7.4c-4.3.3-7.6.8-10,1.6-2.8.8-4.5,1.9-5,3.4-.5,1.5-.8,3.3-.8,5.5s.3,4.5.8,5.9c.5,1.4,1.9,2.4,4.2,3,2.3.6,6,1.1,11.3,1.4l37.1,2.5c4.3.3,8.2.7,11.9,1.3,3.7.6,6.9,1.5,9.7,2.8,2.8,1.2,5,3,6.7,5.4,1,1.3,1.9,2.8,2.6,4.5.7,1.7,1.2,3.5,1.6,5.6.3,2.1.5,4.4.5,6.9,0,5.4-.9,9.8-2.7,13.2-1.8,3.5-4.4,6.2-7.6,8.2-3.3,2-7.1,3.4-11.5,4.3-4.4.9-9.2,1.4-14.5,1.6-5.3.2-10.8.3-16.4.3Z"></path>
    </g>
    <polygon class="st2" points="440.5 99.2 440.4 99.2 440.4 99.3 297.6 242.1 154.9 99.3 154.9 99.2 154.8 99.2 66.7 99.2 66.7 135.8 66.7 341.3 154.9 341.3 154.9 224 272.1 341.3 297.6 341.3 297.6 341.3 323.2 341.3 440.4 224 440.4 341.3 528.6 341.3 528.6 135.8 528.6 99.2 440.5 99.2"></polygon>
  </g>
  <text class="st4" transform="translate(60.6 533)" svgjs:data="{&quot;leading&quot;:&quot;1.3&quot;}"><tspan class="st1"><tspan x="0" y="0">RAL: 5015</tspan></tspan><tspan class="st1"><tspan x="0" y="30.9">RGB: 35, 114, 181</tspan></tspan><tspan class="st1"><tspan x="0" y="61.9">CMYK: 84, 49, 3, 0</tspan></tspan><tspan class="st1" x="0" y="92.8">#2372b5</tspan><tspan class="st0" x="93.6" y="92.8"> </tspan></text>
</svg><style>@media (prefers-color-scheme: light) { :root { filter: none; } }
@media (prefers-color-scheme: dark) { :root { filter: none; } }
</style></svg>